<?xml version="1.0" encoding="UTF-8"?>
<svg id="Layer_3" data-name="Layer 3" xmlns="http://www.w3.org/2000/svg" viewBox="0 0 391.14 120">
  <g id="Layer_1" data-name="Layer 1">
    <g>
      <g>
        <path d="M25.89,97.15l-3.73,2.48c-1.68-2.44-4.42-3.98-7.71-3.98-5.64,0-9.78,4.08-9.78,10.04s4.14,10.04,9.78,10.04c3.27,0,5.97-1.48,7.69-3.96l3.63,2.66c-2.35,3.45-6.49,5.58-11.32,5.58-8.48,0-14.45-6.07-14.45-14.31s5.97-14.31,14.45-14.31c4.91,0,9.27,2.19,11.44,5.77Z"/>
        <path d="M50.99,111.48c0,6.01-4.34,8.5-8.75,8.5s-8.76-2.48-8.76-8.5v-10.88h4.14v10.51c0,3.65,2.03,4.99,4.61,4.99s4.61-1.34,4.61-4.99v-10.51h4.14v10.88Z"/>
        <path d="M73.15,104.34h-7.24v8.22c0,2.54,1.34,3.53,3,3.53,1.28,0,2.68-.57,3.81-1.28l1.64,3.29c-1.52,1.03-3.43,1.87-5.8,1.87-4.28,0-6.78-2.31-6.78-7.33v-8.3h-3.77v-3.75h3.77v-5.72h4.14v5.72h7.24v3.75Z"/>
        <path d="M107.28,104.34h-6.47v15.14h-4.14v-15.14h-3.79v-3.75h3.79v-3.19c0-3.79,1.91-6.8,6.33-6.8,2.21,0,3.87.59,5.26,1.42l-1.46,3.47c-.97-.55-2.29-1-3.53-1-1.6,0-2.46,1.04-2.46,2.92v3.19h6.47v3.75Z"/>
        <path d="M133.52,110.04c0,5.66-4.34,9.94-10.17,9.94s-10.15-4.28-10.15-9.94,4.32-9.94,10.15-9.94,10.17,4.28,10.17,9.94ZM117.43,110.04c0,3.57,2.54,6.05,5.91,6.05s5.93-2.48,5.93-6.05-2.56-6.05-5.93-6.05-5.91,2.48-5.91,6.05Z"/>
        <path d="M154.44,100.64l-.99,4.08c-.87-.45-2.13-.69-3.14-.69-2.62,0-4.49,1.85-4.49,5.06v10.39h-4.12v-18.89h4.08v2.13c1.24-1.8,3.17-2.62,5.48-2.62,1.26,0,2.23.16,3.17.53Z"/>
        <path d="M191.25,103.12l-2.64,2.82c-1.32-1.24-2.72-1.95-4.54-1.95-3.17,0-5.58,2.48-5.58,6.05s2.41,6.05,5.58,6.05c1.81,0,3.43-.85,4.63-1.97l2.54,2.84c-1.71,1.99-4.24,3.02-7.06,3.02-6.01,0-9.94-4.28-9.94-9.94s3.92-9.94,9.94-9.94c2.82,0,5.38,1.02,7.06,3.02Z"/>
        <path d="M202.88,102.85c1.52-2.17,3.84-2.74,5.76-2.74,4.5,0,7.67,3.1,7.67,7.51v11.87h-4.14v-10.51c0-3.17-1.64-4.95-4.4-4.95s-4.89,1.75-4.89,4.99v10.47h-4.14v-28.39h4.14v11.75Z"/>
        <path d="M243.78,119.49h-4.12v-2.27c-1.3,1.68-3.25,2.76-5.94,2.76-5.28,0-9.44-4.16-9.44-9.94s4.16-9.94,9.44-9.94c2.68,0,4.63,1.1,5.94,2.78v-2.29h4.12v18.89ZM228.52,110.04c0,3.31,2.15,6.05,5.7,6.05s5.7-2.6,5.7-6.05-2.29-6.05-5.7-6.05-5.7,2.74-5.7,6.05Z"/>
        <path d="M265.9,100.64l-.99,4.08c-.87-.45-2.13-.69-3.14-.69-2.62,0-4.5,1.85-4.5,5.06v10.39h-4.12v-18.89h4.08v2.13c1.24-1.8,3.17-2.62,5.48-2.62,1.26,0,2.23.16,3.17.53Z"/>
        <path d="M290.82,119.49h-4.12v-2.27c-1.3,1.68-3.25,2.76-5.94,2.76-5.29,0-9.44-4.16-9.44-9.94s4.16-9.94,9.44-9.94c2.68,0,4.63,1.1,5.94,2.78v-2.29h4.12v18.89ZM275.56,110.04c0,3.31,2.15,6.05,5.7,6.05s5.7-2.6,5.7-6.05-2.29-6.05-5.7-6.05-5.7,2.74-5.7,6.05Z"/>
        <path d="M316.02,103.12l-2.64,2.82c-1.32-1.24-2.72-1.95-4.54-1.95-3.17,0-5.58,2.48-5.58,6.05s2.41,6.05,5.58,6.05c1.82,0,3.43-.85,4.63-1.97l2.54,2.84c-1.71,1.99-4.24,3.02-7.06,3.02-6.01,0-9.94-4.28-9.94-9.94s3.92-9.94,9.94-9.94c2.82,0,5.38,1.02,7.06,3.02Z"/>
        <path d="M337.34,104.34h-7.23v8.22c0,2.54,1.34,3.53,3,3.53,1.28,0,2.68-.57,3.81-1.28l1.64,3.29c-1.52,1.03-3.43,1.87-5.8,1.87-4.28,0-6.78-2.31-6.78-7.33v-8.3h-3.77v-3.75h3.77v-5.72h4.14v5.72h7.23v3.75Z"/>
        <path d="M361.99,110.02c0,.53-.04,1.06-.08,1.54h-13.96c.55,3.39,2.94,4.81,5.62,4.81,1.89,0,3.9-.75,5.46-1.99l2.05,2.94c-2.31,1.97-4.91,2.66-7.77,2.66-5.66,0-9.66-3.94-9.66-9.94s3.85-9.94,9.41-9.94,8.91,4.02,8.93,9.92ZM347.97,108.43h9.8c-.46-2.94-2.17-4.65-4.79-4.65-2.94,0-4.57,1.89-5.01,4.65Z"/>
        <path d="M382.93,100.64l-.99,4.08c-.87-.45-2.13-.69-3.14-.69-2.62,0-4.5,1.85-4.5,5.06v10.39h-4.12v-18.89h4.08v2.13c1.24-1.8,3.17-2.62,5.48-2.62,1.26,0,2.23.16,3.17.53Z"/>
      </g>
      <g>
        <path d="M60.22,25.58c0-14.07-9.58-23.74-27.96-23.74H0v68.44h16c-.09-4.23-.03-13.61,1.35-19.05.95-3.77,2.19-6.1,3.14-7.48-3.74-5.98-6.33-13.55-6.88-20.31-.09-.89-.12-1.78-.12-2.65.58.66,1.12,1.32,1.67,2.04,4.03,5.24,7.11,12.37,8.4,19.16h5.64c0,1.99-.81,3.8-2.1,5.09-.52.52-1.09.95-1.75,1.29,5.73,4.78,9.38,11.97,9.38,20.02,0,.63-.03,1.27-.09,1.87h27.53l-18.01-24.4c10.62-2.93,16.05-10.36,16.05-20.31ZM31.73,22.59c-.43,5.35-2.79,11.42-6.04,15.68-.37.49-.75.95-1.12,1.38,0-.58.03-1.18.06-1.78.43-5.32,2.76-11.42,6.04-15.68.35-.49.72-.95,1.12-1.38,0,.6-.03,1.18-.06,1.78Z"/>
        <path d="M92.31,0c-14.92,0-24.93,4.91-29.9,8.63l9.25,18.16c4.49-2.83,10.43-5.59,18.44-5.59,6.77,0,10.29,2.69,11.19,7.94h-10.98c-19.75,0-30.38,7.94-30.38,21.48s9.87,21.48,24.44,21.48c8.84,0,14.57-3.11,18.58-6.84v5.04h23.13V30.87c0-22.72-15.12-30.87-33.77-30.87ZM93.42,53.8c-.67.09-1.36.14-2.08.14-4.21,0-6.63-1.93-6.63-5.18s3.38-5.25,9.25-5.25h8.29c0,5.14-3.74,9.6-8.83,10.29Z"/>
        <path d="M183.49,36.3c5.4-2.89,9.1-7.84,9.1-14.43,0-11.73-7.84-20.01-27.6-20.01h-32.81v68.44h34.69c19.2,0,27.1-7.97,27.1-19.64,0-6.34-4.45-12.04-10.48-14.37ZM153.75,18.42h10.35c4.71,0,6.46,2.07,6.46,4.96s-1.82,4.83-6.59,4.83h-10.22v-9.79ZM165.17,53.92l-11.42-.06v-9.97h11.42c4.77,0,6.96,2.13,6.96,4.96,0,3.01-2.19,5.08-6.96,5.08Z"/>
        <path d="M248.87,36.3c5.39-2.89,9.1-7.84,9.1-14.43,0-11.73-7.84-20.01-27.6-20.01h-32.81v68.44h34.69c19.19,0,27.1-7.97,27.1-19.64,0-6.34-4.46-12.04-10.48-14.37ZM219.13,18.42h10.35c4.7,0,6.46,2.07,6.46,4.96s-1.82,4.83-6.59,4.83h-10.23v-9.79ZM230.55,53.92l-11.42-.06v-9.97h11.42c4.77,0,6.96,2.13,6.96,4.96,0,3.01-2.2,5.08-6.96,5.08Z"/>
        <path d="M281.44.9c-4.92-1-9.98-1-14.9,0-2.96.61-5.28,2.92-5.88,5.88-1,4.92-1,9.98,0,14.9.61,2.96,2.92,5.28,5.88,5.88,4.92,1,9.98,1,14.9,0,2.96-.61,5.28-2.92,5.88-5.88,1-4.92,1-9.98,0-14.9-.61-2.96-2.92-5.28-5.88-5.88Z"/>
        <rect x="261.77" y="32.44" width="24.58" height="38.28"/>
        <path d="M382.93,45.08c-3.18,1.8-7.32,4.14-11.12,4.14-5.32,0-9.18-2.28-9.18-9.67v-7.54h20.3V10.34h-20.3V1.86h-24.58v41.5c0,2.73.23,5.32.67,7.76l-2.6-6.04c-3.18,1.8-7.32,4.14-11.12,4.14-5.32,0-9.18-2.28-9.18-9.67v-7.54h20.3V10.34h-20.3V1.86h-24.58v41.5c0,16.78,7.94,28.73,27.42,28.73,12.01,0,18.85-3.18,25.69-7.94l-.28-.65c4.4,5.39,11.36,8.59,21.41,8.59,12.01,0,18.85-3.18,25.69-7.94l-8.22-19.06Z"/>
      </g>
    </g>
  </g>
</svg>