<?xml version="1.0" encoding="UTF-8"?>
<svg id="Layer_2" data-name="Layer 2" xmlns="http://www.w3.org/2000/svg" viewBox="0 0 651.05 120">
  <g id="Layer_1" data-name="Layer 1">
    <g>
      <path d="M100.23,42.58c0-23.42-15.95-39.51-46.55-39.51H0v113.92h26.63c-.14-7.04-.05-22.65,2.25-31.7,1.58-6.27,3.64-10.15,5.22-12.45-6.23-9.96-10.54-22.55-11.45-33.81-.14-1.48-.19-2.97-.19-4.41.96,1.1,1.87,2.2,2.78,3.4,6.7,8.72,11.83,20.59,13.98,31.89h9.39c0,3.3-1.34,6.32-3.5,8.48-.86.86-1.82,1.58-2.92,2.16,9.53,7.95,15.61,19.92,15.61,33.33,0,1.05-.05,2.11-.14,3.11h45.83l-29.98-40.61c17.67-4.88,26.72-17.24,26.72-33.81ZM52.82,37.6c-.72,8.91-4.65,19.01-10.06,26.1-.62.81-1.25,1.58-1.87,2.3,0-.96.05-1.96.1-2.97.72-8.86,4.6-19.01,10.06-26.1.57-.81,1.2-1.58,1.87-2.3,0,1.01-.05,1.96-.1,2.97Z"/>
      <path d="M153.65,0c-24.83,0-41.49,8.17-49.77,14.37l15.4,30.23c7.47-4.71,17.36-9.31,30.69-9.31,11.26,0,17.13,4.48,18.62,13.22h-18.28c-32.87,0-50.57,13.22-50.57,35.75s16.44,35.75,40.69,35.75c14.71,0,24.25-5.17,30.92-11.38v8.39h38.5V51.38C209.86,13.57,184.69,0,153.65,0ZM155.5,89.54c-1.11.15-2.26.23-3.46.23-7.01,0-11.03-3.22-11.03-8.62s5.63-8.74,15.4-8.74h13.79c0,8.56-6.22,15.99-14.7,17.12Z"/>
      <path d="M305.41,60.42c8.98-4.8,15.14-13.05,15.14-24.01,0-19.53-13.05-33.31-45.94-33.31h-54.61v113.92h57.74c31.95,0,45.11-13.26,45.11-32.68,0-10.55-7.41-20.05-17.44-23.91ZM255.92,30.66h17.23c7.83,0,10.76,3.44,10.76,8.25s-3.03,8.04-10.97,8.04h-17.02v-16.29ZM274.93,89.76l-19.01-.1v-16.6h19.01c7.94,0,11.59,3.55,11.59,8.25,0,5.01-3.65,8.46-11.59,8.46Z"/>
      <path d="M414.23,60.42c8.98-4.8,15.14-13.05,15.14-24.01,0-19.53-13.06-33.31-45.94-33.31h-54.61v113.92h57.74c31.95,0,45.11-13.26,45.11-32.68,0-10.55-7.42-20.05-17.44-23.91ZM364.74,30.66h17.23c7.83,0,10.75,3.44,10.75,8.25s-3.03,8.04-10.96,8.04h-17.02v-16.29ZM383.74,89.76l-19.01-.1v-16.6h19.01c7.94,0,11.59,3.55,11.59,8.25,0,5.01-3.65,8.46-11.59,8.46Z"/>
      <path d="M468.45,1.49c-8.18-1.67-16.62-1.67-24.8,0-4.93,1.01-8.79,4.86-9.79,9.79-1.67,8.18-1.67,16.62,0,24.8,1.01,4.93,4.86,8.79,9.79,9.79,8.18,1.67,16.62,1.67,24.8,0,4.93-1.01,8.79-4.86,9.79-9.79,1.67-8.18,1.67-16.62,0-24.8-1.01-4.93-4.86-8.79-9.79-9.79Z"/>
      <rect x="435.71" y="54" width="40.92" height="63.71"/>
      <path d="M637.37,75.04c-5.29,2.99-12.18,6.9-18.51,6.9-8.85,0-15.29-3.79-15.29-16.09v-12.55h33.79V17.2h-33.79V3.09h-40.92v69.08c0,4.55.39,8.85,1.12,12.92l-4.33-10.05c-5.29,2.99-12.18,6.9-18.51,6.9-8.85,0-15.29-3.79-15.29-16.09v-12.55h33.79V17.2h-33.79V3.09h-40.92v69.08c0,27.93,13.22,47.81,45.63,47.81,20,0,31.37-5.29,42.76-13.22l-.47-1.08c7.32,8.97,18.91,14.3,35.64,14.3,20,0,31.37-5.29,42.76-13.22l-13.68-31.73Z"/>
    </g>
  </g>
</svg>