<?xml version="1.0" encoding="UTF-8"?>
<svg id="Layer_2" data-name="Layer 2" xmlns="http://www.w3.org/2000/svg" viewBox="0 0 109 120">
  <g id="Layer_1" data-name="Layer 1">
    <path d="M109,120l-31.58-42.77c18.61-5.15,28.15-18.16,28.15-35.61C105.57,16.95,88.78,0,56.54,0H0v120h28.05c-.15-7.42-.05-23.86,2.37-33.39,1.66-6.61,3.83-10.69,5.5-13.11-6.56-10.49-11.1-23.76-12.06-35.61-.15-1.56-.2-3.13-.2-4.64,1.01,1.16,1.97,2.32,2.93,3.58,7.06,9.18,12.46,21.69,14.73,33.59h9.89c0,3.48-1.41,6.66-3.68,8.93-.91.91-1.92,1.66-3.08,2.27,10.04,8.37,16.44,20.98,16.44,35.11,0,1.11-.05,2.22-.15,3.28h48.27ZM55.64,36.37c-.76,9.38-4.89,20.03-10.59,27.49-.66.86-1.31,1.66-1.97,2.42,0-1.01.05-2.07.1-3.13.76-9.33,4.84-20.03,10.59-27.49.61-.86,1.26-1.66,1.97-2.42,0,1.06-.05,2.07-.1,3.13Z"/>
  </g>
</svg>