<?xml version="1.0" encoding="UTF-8"?>
<svg id="Layer_3" data-name="Layer 3" xmlns="http://www.w3.org/2000/svg" viewBox="0 0 51.49 120">
  <g id="Layer_1" data-name="Layer 1">
    <g>
      <path d="M51.49,115.46c0,1.54-.07,3.07-.21,4.54H6.07c-.21-10.26-.07-33,3.28-46.19,2.3-9.14,5.3-14.79,7.6-18.14C7.88,41.16,1.6,22.81.28,6.42.07,4.26,0,2.09,0,0c1.4,1.6,2.79,3.21,4.12,4.95,9.7,12.7,17.16,30,20.3,46.46h13.67c0,4.81-1.95,9.21-5.09,12.35-1.26,1.26-2.65,2.3-4.26,3.14,13.88,11.58,22.74,29.02,22.74,48.56Z"/>
      <path d="M29.62,42.38c-.89,1.16-1.8,2.26-2.74,3.3,0-1.4.05-2.83.17-4.29,1.04-12.96,6.71-27.74,14.61-38.06.89-1.16,1.8-2.26,2.74-3.3,0,1.4-.05,2.83-.17,4.29-1.04,12.96-6.71,27.74-14.61,38.06Z"/>
    </g>
  </g>
</svg>